<?xml version="1.0" standalone="no"?>
<!DOCTYPE svg PUBLIC "-//W3C//DTD SVG 20010904//EN"
 "http://www.w3.org/TR/2001/REC-SVG-20010904/DTD/svg10.dtd">
<svg version="1.0" xmlns="http://www.w3.org/2000/svg"
 width="512.000000pt" height="512.000000pt" viewBox="0 0 512.000000 512.000000"
 preserveAspectRatio="xMidYMid meet">

<g transform="translate(0.000000,512.000000) scale(0.100000,-0.100000)"
fill="#000000" stroke="none">
<path d="M1755 5109 c-31 -17 -1724 -1711 -1741 -1741 -12 -23 -14 -189 -14
-1113 l0 -1087 29 -29 29 -29 921 0 920 0 3 -32 c3 -33 42 -70 117 -110 l31
-17 0 -98 0 -98 -60 -33 c-68 -38 -90 -64 -90 -106 0 -35 157 -318 196 -353
36 -32 77 -29 144 12 32 19 62 35 68 35 5 0 36 -16 67 -35 32 -19 67 -37 77
-41 15 -4 18 -16 18 -75 0 -77 18 -132 48 -148 13 -7 95 -11 216 -11 190 0
196 1 222 24 26 21 28 30 32 114 4 84 6 91 27 96 12 3 46 22 75 41 29 19 57
35 62 35 6 0 36 -16 68 -35 88 -54 112 -50 186 32 l61 67 69 -31 c38 -17 83
-35 99 -40 l30 -10 5 -122 c5 -119 6 -123 33 -147 28 -24 32 -24 217 -24 198
0 229 5 249 44 6 11 12 72 13 135 l3 114 30 10 c17 5 60 23 97 39 l68 31 85
-82 c78 -75 88 -81 127 -81 40 0 46 4 180 138 134 134 138 140 138 180 0 39
-6 49 -81 127 l-82 85 31 68 c16 37 34 81 39 97 l10 30 114 3 c63 1 124 7 135
13 39 20 44 51 44 249 0 185 0 189 -24 217 -24 27 -28 28 -147 33 l-122 5 -10
30 c-5 17 -23 60 -40 98 l-30 67 81 84 c74 76 82 87 82 122 0 37 -8 47 -143
182 -181 181 -178 180 -302 61 l-85 -82 -68 31 c-37 16 -80 34 -97 39 l-30 10
-5 122 c-5 119 -6 123 -33 147 -28 24 -31 24 -223 24 l-196 0 -29 -29 c-29
-29 -29 -31 -29 -145 0 -128 5 -118 -67 -140 l-23 -7 0 647 0 648 -170 171
-170 171 0 510 c0 499 0 511 -20 532 -11 12 -31 24 -43 27 -12 3 -145 5 -295
3 l-274 -3 -24 -28 c-23 -27 -24 -33 -24 -195 l0 -167 -368 368 c-382 382
-385 384 -437 356z m1655 -2451 l0 -582 -47 46 c-52 51 -84 67 -118 60 -29 -5
-303 -281 -305 -307 -5 -46 4 -61 82 -141 l81 -84 -31 -68 c-18 -38 -32 -73
-32 -78 0 -20 -17 -34 -33 -28 -14 5 -17 20 -17 75 0 90 -18 133 -60 148 -44
15 -356 15 -400 0 -42 -15 -60 -58 -60 -148 0 -60 -3 -71 -19 -76 -10 -3 -46
-23 -79 -44 l-59 -39 -69 39 c-111 62 -137 53 -207 -71 l-43 -75 -272 -3 -272
-2 0 400 0 401 -25 24 -24 25 -376 0 -376 0 -24 -25 -25 -24 0 -401 0 -400
-215 0 -215 0 0 980 0 980 1620 0 1620 0 0 -582z m600 -547 c0 -131 11 -152
92 -171 67 -17 159 -54 211 -87 22 -14 57 -28 78 -30 35 -5 41 -1 118 73 l82
78 57 -57 56 -56 -71 -73 c-38 -40 -73 -83 -77 -96 -10 -30 0 -68 25 -104 26
-36 73 -150 88 -216 20 -81 40 -92 172 -92 l109 0 0 -85 0 -85 -110 0 c-104 0
-113 -2 -135 -24 -13 -13 -29 -43 -35 -67 -19 -73 -48 -146 -87 -217 -47 -87
-43 -104 50 -199 l71 -74 -57 -56 -56 -57 -74 71 c-95 93 -112 97 -199 50 -71
-39 -144 -68 -217 -87 -24 -6 -54 -22 -67 -35 -22 -22 -24 -31 -24 -135 l0
-110 -85 0 -85 0 0 109 c0 136 -8 148 -120 181 -108 32 -182 70 -174 89 36 90
28 113 -64 168 l-67 40 -2 97 c-2 96 -2 97 24 109 21 9 27 9 31 -1 12 -36 100
-138 152 -176 100 -74 235 -113 346 -102 236 24 426 201 466 433 36 212 -85
442 -282 536 -162 77 -311 73 -478 -12 -71 -36 -164 -137 -204 -219 l-35 -73
-27 45 c-46 79 -85 92 -157 55 -23 -11 -43 -18 -46 -15 -3 3 18 52 46 110 28
58 51 117 51 131 0 18 -23 49 -77 106 l-77 80 57 56 56 57 80 -77 c87 -83 109
-91 166 -61 93 50 148 74 215 94 112 33 120 45 120 181 l0 109 85 0 85 0 0
-109z m-2730 -491 l0 -340 -255 0 -255 0 0 340 0 340 255 0 255 0 0 -340z
m2796 -122 c206 -102 251 -379 88 -542 -132 -133 -346 -133 -478 0 -162 162
-117 441 88 543 89 44 213 44 302 -1z m-1248 -505 c88 -65 95 -197 13 -266
-73 -61 -167 -55 -233 14 -76 80 -56 208 42 261 46 25 138 21 178 -9z"/>
<path d="M1735 2875 l-25 -24 0 -291 0 -291 25 -24 24 -25 459 0 459 0 27 26
26 27 0 287 0 287 -26 27 -27 26 -459 0 -459 0 -24 -25z m395 -315 l0 -170
-125 0 -125 0 0 170 0 170 125 0 125 0 0 -170z m430 0 l0 -170 -125 0 -125 0
0 170 0 170 125 0 125 0 0 -170z"/>
</g>
</svg>
